<svg width="161" height="141" viewBox="0 0 161 141" fill="none" xmlns="http://www.w3.org/2000/svg">
<path d="M81.2071 0.926837C80.8166 0.536313 80.1834 0.536313 79.7929 0.926837L73.4289 7.2908C73.0384 7.68132 73.0384 8.31449 73.4289 8.70501C73.8195 9.09554 74.4526 9.09554 74.8431 8.70501L80.5 3.04816L86.1569 8.70501C86.5474 9.09554 87.1805 9.09554 87.5711 8.70501C87.9616 8.31449 87.9616 7.68132 87.5711 7.2908L81.2071 0.926837ZM81.5 100.014L81.5 1.63394H79.5L79.5 100.014H81.5Z" fill="#0341BA"/>
<path d="M1.79602 73.7795V113.132C1.79602 127.621 11.8637 139.366 24.2829 139.366L136.717 139.366C149.136 139.366 159.204 127.621 159.204 113.132V73.7795" stroke="#0341BA" stroke-width="2"/>
</svg>
